<?xml version="1.0" encoding="iso-8859-1"?>
<!-- Uploaded to: SVG Repo, www.svgrepo.com, Generator: SVG Repo Mixer Tools -->
<svg height="50" width="50" version="1.1" id="Layer_1" xmlns="http://www.w3.org/2000/svg" xmlns:xlink="http://www.w3.org/1999/xlink" 
	 viewBox="0 0 512 512" xml:space="preserve">
<path style="fill:#D33D3D;" d="M370.386,127.858c-73.57,0-133.208-26.816-133.208-59.893v79.858v122.238h9.439
	c20.069,0,36.338,16.267,36.338,36.336v22.948v53.308v57.28v4.045v1.687v5.731v4.055v11.473c0,7.322-2.174,14.132-5.899,19.838
	c24.036,10.613,56.979,17.164,93.331,17.164c73.57,0,133.208-26.816,133.208-59.892v-79.858V147.822V67.966
	C503.595,101.042,443.956,127.858,370.386,127.858z"/>
<g style="opacity:0.15;">
	<path style="fill:#202020;" d="M302.348,486.763c3.726-5.705,5.898-12.515,5.898-19.838v-11.473v-4.055v-5.731v-1.687v-4.045
		v-57.28v-53.308v-22.948c0-20.069-16.269-36.336-36.336-36.336h-9.441V147.822v-44.081c-16.562-9.981-26.368-22.363-26.368-35.775
		v79.858v122.237h9.439c20.069,0,36.338,16.267,36.338,36.336v22.948v53.308v57.28v4.045v1.687v5.731v4.055v11.473
		c0,7.322-2.174,14.132-5.899,19.838c24.036,10.613,56.979,17.164,93.331,17.164c4.456,0,8.856-0.1,13.198-0.292
		C351.405,502.26,323.443,496.079,302.348,486.763z"/>
</g>
<path style="fill:#DCE0E2;" d="M214.027,270.061h32.589c20.069,0,36.338,16.267,36.338,36.336v22.948
	c0,20.068-16.269,36.337-36.338,36.337H44.741c-20.068,0-36.336-16.269-36.336-36.337v-22.948c0-20.069,16.267-36.336,36.336-36.336
	h144.372"/>
<g style="opacity:0.15;">
	<path style="fill:#202020;" d="M34.837,329.344v-22.948c0-20.069,16.267-36.336,36.336-36.336H44.741
		c-20.068,0-36.336,16.267-36.336,36.336v22.948c0,20.068,16.267,36.337,36.336,36.337h26.431
		C51.105,365.682,34.837,349.412,34.837,329.344z"/>
</g>
<path style="fill:#7F6A6A;" d="M246.617,365.682H44.741c-20.068,0-36.336-16.269-36.336-36.337v114.633v11.473v11.473
	c0,20.068,16.267,36.337,36.336,36.337h201.874c20.069,0,36.338-16.269,36.338-36.337v-11.473v-11.473V329.344
	C282.955,349.412,266.685,365.682,246.617,365.682z"/>
<path style="fill:#8C5549;" d="M246.617,400.81H44.741c-20.068,0-36.336-8.131-36.336-18.157v57.28v5.732v5.731
	c0,10.026,16.267,18.157,36.336,18.157h201.874c20.069,0,36.338-8.131,36.338-18.157v-5.731v-5.732v-57.28
	C282.955,392.679,266.685,400.81,246.617,400.81z"/>
<path style="fill:#7F6A6A;" d="M248.832,320.594c0,7.134-5.782,12.918-12.918,12.918h-43.777c-7.134,0-12.918-5.784-12.918-12.918
	v-5.024c0-7.135,5.784-12.918,12.918-12.918h43.777c7.136,0,12.918,5.783,12.918,12.918V320.594z"/>
<ellipse style="fill:#DCE0E2;" cx="370.39" cy="67.97" rx="133.206" ry="59.893"/>
<g style="opacity:0.15;">
	<path style="fill:#202020;" d="M262.476,67.966c0-31.075,52.644-56.624,120.025-59.599c-4.337-0.193-8.735-0.293-13.185-0.293
		c-73.57,0-133.208,26.816-133.208,59.892c0,33.077,59.638,59.893,133.208,59.893c4.45,0,8.848-0.1,13.185-0.292
		C315.121,124.589,262.476,99.042,262.476,67.966z"/>
</g>
<ellipse style="fill:#7F6A6A;" cx="310.763" cy="67.617" rx="22.606" ry="11.841"/>
<path style="fill:#E95353;" d="M370.386,177.483c-73.57,0-133.208-21.803-133.208-48.696v72.686v68.589h9.439
	c20.069,0,36.338,16.267,36.338,36.336v22.948v53.308v57.84c23.397,7.447,53.972,11.958,87.432,11.958
	c73.57,0,133.208-21.803,133.208-48.696v-79.593v-122.69v-72.686C503.595,155.68,443.956,177.483,370.386,177.483z"/>
<g style="opacity:0.15;">
	<path style="fill:#202020;" d="M308.246,440.493v-57.84v-53.308v-22.948c0-20.069-16.269-36.336-36.336-36.336h-9.441v-68.589
		v-43.597c-16.562-8.117-26.368-18.184-26.368-29.088v72.686v68.589h9.439c20.069,0,36.338,16.267,36.338,36.336v22.948v53.308
		v57.84c23.397,7.447,53.972,11.958,87.432,11.958c4.467,0,8.883-0.082,13.239-0.239
		C354.249,451.199,328.543,446.954,308.246,440.493z"/>
</g>
<ellipse transform="matrix(-0.7071 -0.7071 0.7071 -0.7071 371.8523 667.7512)" style="fill:#E8A854;" cx="324.222" cy="256.862" rx="21.951" ry="56.606"/>
<path style="fill:#F7BD63;" d="M364.262,216.838L364.262,216.838c8.574,8.574-2.401,33.441-24.505,55.548
	c-22.106,22.106-46.975,33.079-55.549,24.508l0,0c2.449,3.241,4.279,7.26,7.262,10.245c19.756,19.756,45.921,27.867,67.665,23.18
	l10.708,10.708c10.084,10.082,26.433,10.084,36.517,0l1.52-1.521c10.084-10.084,10.084-26.433,0-36.516l-10.708-10.709
	c4.687-21.744-3.425-47.909-23.18-67.664C371.007,221.63,367.504,219.287,364.262,216.838z"/>
<path style="fill:#FFF1CE;" d="M405.759,354.221l18.481,18.482l-0.948,10.223l0,0c-0.399,4.013,0.935,8.166,4.01,11.24
	c5.44,5.438,14.255,5.438,19.695,0c2.746-2.745,4.101-6.351,4.077-9.949c3.598,0.026,7.203-1.331,9.949-4.077
	c5.44-5.438,5.44-14.256,0-19.695c-2.676-2.677-6.173-4.034-9.68-4.076h-0.002c-0.953-0.011-1.905,0.072-2.845,0.255l-8.898,0.798
	l-26.17-26.172c-1.26,2.999-3.104,5.809-5.546,8.251l-1.52,1.521c-2.444,2.441-5.254,4.287-8.252,5.545"/>
<g>
	<path style="fill:#202020;" d="M171.146,315.57v5.024c0,11.575,9.417,20.992,20.992,20.992h43.777
		c11.574,0,20.992-9.417,20.992-20.992v-5.024c0-11.575-9.417-20.992-20.992-20.992h-43.777
		C180.563,294.578,171.146,303.995,171.146,315.57z M240.758,315.57v5.024c0,2.671-2.173,4.844-4.844,4.844h-43.777
		c-2.671,0-4.844-2.173-4.844-4.844v-5.024c0-2.671,2.173-4.844,4.844-4.844h43.777C238.586,310.725,240.758,312.898,240.758,315.57
		z"/>
	<path style="fill:#202020;" d="M467.891,18.252C441.711,6.482,407.084,0,370.386,0s-71.325,6.482-97.504,18.252
		c-28.231,12.693-43.778,30.349-43.778,49.714v60.821v133.2h-15.077c-4.46,0-8.074,3.614-8.074,8.074s3.614,8.074,8.074,8.074
		h23.151h9.439c15.586,0,28.264,12.678,28.264,28.262v22.948c0,15.584-12.679,28.263-28.264,28.263H44.742
		c-15.584,0-28.262-12.679-28.262-28.263v-22.948c0-15.584,12.678-28.262,28.262-28.262h144.372c4.46,0,8.074-3.614,8.074-8.074
		s-3.614-8.074-8.074-8.074H44.742c-24.487,0-44.41,19.923-44.41,44.41v22.948v53.308v68.744v15.528
		c0,24.488,19.922,44.411,44.41,44.411h201.874c13.102,0,24.892-5.705,33.028-14.759c25.25,9.966,57.167,15.423,90.741,15.423
		c36.698,0,71.325-6.482,97.504-18.252c28.231-12.693,43.778-30.349,43.778-49.714v-40.28V128.787V67.966
		C511.668,48.601,496.121,30.945,467.891,18.252z M279.505,32.98c24.14-10.854,56.417-16.832,90.881-16.832
		s66.741,5.978,90.882,16.832c21.768,9.788,34.252,22.54,34.252,34.986s-12.485,25.199-34.252,34.986
		c-24.142,10.855-56.417,16.833-90.882,16.833s-66.741-5.978-90.882-16.833c-21.768-9.788-34.252-22.54-34.252-34.986
		S257.737,42.766,279.505,32.98z M495.521,100.251v28.536c0,19.176-53.515,40.623-125.134,40.623s-125.134-21.447-125.134-40.623
		v-28.536c0.084,0.078,0.178,0.152,0.263,0.229c0.716,0.649,1.453,1.293,2.213,1.93c0.138,0.115,0.271,0.231,0.41,0.347
		c0.834,0.69,1.698,1.371,2.584,2.045c0.185,0.141,0.372,0.28,0.56,0.42c1.844,1.38,3.796,2.727,5.857,4.04
		c0.205,0.13,0.408,0.261,0.614,0.39c1.022,0.641,2.066,1.275,3.139,1.898c0.155,0.09,0.315,0.179,0.473,0.269
		c1.004,0.577,2.03,1.146,3.079,1.709c0.172,0.093,0.34,0.186,0.513,0.278c1.13,0.6,2.289,1.188,3.468,1.77
		c0.245,0.121,0.494,0.24,0.742,0.361c1.216,0.59,2.449,1.173,3.717,1.744c26.178,11.77,60.806,18.252,97.504,18.252
		s71.325-6.482,97.504-18.252c1.268-0.571,2.502-1.154,3.719-1.744c0.247-0.119,0.493-0.239,0.738-0.36
		c1.182-0.581,2.341-1.171,3.473-1.772c0.171-0.09,0.337-0.183,0.506-0.273c1.052-0.564,2.081-1.136,3.088-1.715
		c0.154-0.088,0.312-0.177,0.465-0.265c1.074-0.624,2.121-1.259,3.143-1.901c0.205-0.128,0.406-0.257,0.608-0.386
		c2.064-1.314,4.017-2.663,5.864-4.044c0.185-0.139,0.37-0.277,0.553-0.416c0.888-0.676,1.753-1.359,2.588-2.05
		c0.137-0.113,0.269-0.228,0.405-0.342c0.762-0.639,1.503-1.284,2.221-1.937C495.345,100.401,495.437,100.327,495.521,100.251z
		 M246.617,261.987h-1.365v-105.73c25.259,19.179,76.291,29.3,125.134,29.3s99.875-10.12,125.134-29.3v247.497
		c0,19.176-53.515,40.623-125.134,40.623c-28.893,0-56.799-3.494-79.358-9.889v-51.837v-53.308V317.71
		c16.23,14.026,36.166,21.973,55.68,21.973c3.282,0,6.527-0.229,9.696-0.682l7.732,7.732c6.401,6.401,14.914,9.926,23.967,9.927
		c0.001,0,0,0,0.001,0c3.317,0,6.559-0.478,9.654-1.393c0.222,1.704,0.984,3.351,2.293,4.66l15.802,15.803l-0.593,6.394
		c-0.657,6.598,1.651,13.066,6.335,17.749c4.289,4.288,9.922,6.433,15.555,6.432c5.632,0,11.268-2.143,15.555-6.431
		c2.479-2.479,4.292-5.442,5.352-8.677c3.234-1.059,6.196-2.873,8.674-5.351c4.155-4.154,6.445-9.68,6.445-15.556
		c0-5.877-2.29-11.402-6.443-15.555c-4.083-4.084-9.515-6.372-15.303-6.441c-1.345-0.005-2.702,0.094-4.021,0.321l-4.772,0.427
		l-20.02-20.021c0.59-2.521,0.901-5.125,0.901-7.779c0-9.053-3.526-17.565-9.927-23.966l-7.73-7.731
		c3.475-24.111-6.302-50.787-26.16-70.645c-2.746-2.744-5.766-4.963-8.431-6.922c-0.61-0.448-1.212-0.893-1.81-1.342
		c-2.497-2.292-6.767-4.793-13.501-4.793c-14.288,0-34.578,11.413-52.951,29.787c-11.382,11.381-20.416,23.918-25.438,35.299
		c-0.396,0.898-0.751,1.768-1.087,2.623C268.589,266.373,258.105,261.987,246.617,261.987z M16.48,403.195
		c7.572,3.589,17.337,5.688,28.262,5.688h201.874c10.925,0,20.691-2.099,28.264-5.688v37.298v10.904
		c0,2.927-9.904,10.084-28.264,10.084H44.742c-18.359,0-28.262-7.157-28.262-10.084V403.195z M370.901,242.795
		c1.07-2.424,1.905-4.687,2.549-6.802c13.644,16.434,19.669,36.774,15.83,54.586c-0.577,2.68,0.245,5.471,2.183,7.41l10.709,10.71
		c3.351,3.351,5.197,7.808,5.197,12.548c0,2.365-0.46,4.659-1.337,6.781c-0.015,0.034-0.034,0.066-0.049,0.1
		c-0.445,1.058-0.986,2.063-1.62,3.007c-0.119,0.177-0.257,0.342-0.383,0.516c-0.209,0.287-0.411,0.579-0.637,0.855
		c-0.367,0.447-0.758,0.878-1.172,1.293l-1.519,1.519c-0.413,0.413-0.843,0.802-1.289,1.169c-0.383,0.315-0.784,0.606-1.19,0.887
		c-0.06,0.042-0.115,0.089-0.175,0.13c-0.946,0.636-1.953,1.179-3.013,1.623c-0.045,0.019-0.086,0.043-0.13,0.062
		c-2.113,0.869-4.396,1.326-6.751,1.326c-4.741,0-9.199-1.846-12.55-5.198l-10.708-10.708c-1.531-1.53-3.591-2.364-5.71-2.364
		c-0.565,0-1.137,0.06-1.701,0.181c-3.428,0.74-7.036,1.113-10.727,1.113c-15.285,0-31.055-6.202-44.179-17.208
		c0.017-0.004,0.034-0.011,0.051-0.016c0.715-0.206,1.439-0.435,2.169-0.678c0.165-0.055,0.33-0.112,0.496-0.169
		c0.737-0.254,1.479-0.521,2.229-0.813c0.041-0.016,0.083-0.033,0.124-0.05c0.721-0.282,1.45-0.587,2.184-0.903
		c0.166-0.072,0.332-0.143,0.498-0.216c0.757-0.334,1.518-0.684,2.285-1.053c0.122-0.059,0.245-0.122,0.367-0.181
		c0.699-0.34,1.401-0.697,2.107-1.066c0.144-0.075,0.287-0.149,0.432-0.225c0.78-0.413,1.565-0.846,2.353-1.294
		c0.158-0.089,0.316-0.182,0.475-0.273c0.742-0.427,1.487-0.867,2.234-1.324c0.083-0.051,0.165-0.098,0.247-0.149
		c0.807-0.496,1.617-1.013,2.43-1.542c0.171-0.111,0.342-0.224,0.512-0.337c1.649-1.088,3.307-2.243,4.969-3.464
		c0.163-0.119,0.325-0.238,0.488-0.358c0.825-0.611,1.649-1.236,2.475-1.879c0.093-0.072,0.186-0.147,0.279-0.22
		c0.77-0.603,1.539-1.22,2.308-1.849c0.135-0.11,0.268-0.217,0.403-0.328c0.825-0.679,1.647-1.374,2.469-2.083
		c0.136-0.117,0.271-0.236,0.407-0.354c0.782-0.679,1.561-1.369,2.339-2.074c0.072-0.065,0.144-0.128,0.215-0.194
		c0.826-0.751,1.648-1.519,2.469-2.298c0.152-0.144,0.303-0.29,0.454-0.435c0.826-0.791,1.65-1.591,2.469-2.41
		c0.799-0.799,1.584-1.605,2.359-2.416c0.084-0.087,0.166-0.177,0.249-0.264c0.734-0.77,1.455-1.544,2.167-2.322
		c0.005-0.006,0.012-0.013,0.017-0.019C359.375,263.099,366.608,252.527,370.901,242.795z M429.949,366.995l-18.481-18.482
		c-0.209-0.209-0.427-0.405-0.652-0.587c0.001-0.001,0.002-0.002,0.003-0.003c0.425-0.385,0.843-0.782,1.252-1.191l1.519-1.519
		c0.398-0.398,0.785-0.805,1.16-1.22l19.137,19.138c1.692,1.692,4.053,2.547,6.431,2.333l8.898-0.798
		c0.276-0.025,0.55-0.064,0.821-0.115c0.39-0.077,0.801-0.105,1.208-0.109c1.538,0.019,2.983,0.627,4.068,1.713
		c1.104,1.104,1.715,2.575,1.715,4.138c0,1.563-0.609,3.033-1.716,4.138c-1.104,1.106-2.574,1.713-4.141,1.713
		c-0.031,0-0.066,0.001-0.099,0c-2.14,0-4.194,0.85-5.71,2.364c-1.528,1.529-2.379,3.605-2.364,5.767
		c0.012,1.584-0.596,3.068-1.712,4.183c-2.283,2.281-5.995,2.281-8.276,0c-1.247-1.246-1.861-2.97-1.68-4.785l0.948-10.223
		C432.502,371.058,431.648,368.692,429.949,366.995z M358.551,222.545c0,0,0.001,0.001,0.001,0.002
		c0.028,0.028,0.052,0.07,0.079,0.103c0.47,0.641,0.77,2.707,0.008,6.216c-1.08,4.594-3.888,11.305-9.174,19.241
		c-0.285,0.424-0.567,0.848-0.863,1.273c-0.002,0.004-0.005,0.008-0.009,0.012c-3.564,5.137-7.864,10.367-12.642,15.341
		c-0.621,0.645-1.253,1.292-1.903,1.942c-16.14,16.14-31.548,24.041-39.95,24.966c-0.561,0.061-1.089,0.093-1.586,0.093
		c-1.412,0-2.32-0.277-2.595-0.552c-0.789-0.789-1.275-5.343,2.426-13.73c4.174-9.461,12.223-20.542,22.082-30.399
		c17.215-17.216,33.599-25.058,41.533-25.058C357.367,221.995,358.273,222.27,358.551,222.545z M246.617,373.755
		c0.722,0,1.439-0.02,2.153-0.055c0.234-0.011,0.464-0.031,0.697-0.046c0.48-0.03,0.959-0.064,1.435-0.11
		c0.271-0.026,0.539-0.059,0.81-0.09c0.435-0.049,0.869-0.103,1.3-0.166c0.278-0.04,0.554-0.085,0.831-0.13
		c0.423-0.07,0.843-0.144,1.262-0.226c0.271-0.053,0.541-0.107,0.812-0.164c0.427-0.091,0.852-0.192,1.275-0.295
		c0.251-0.061,0.503-0.121,0.752-0.187c0.461-0.122,0.916-0.254,1.37-0.39c0.206-0.061,0.412-0.117,0.617-0.182
		c0.651-0.205,1.296-0.422,1.934-0.656c0.003-0.001,0.006-0.002,0.01-0.003c0.647-0.237,1.285-0.491,1.917-0.758
		c0.184-0.078,0.364-0.163,0.547-0.242c0.441-0.193,0.881-0.389,1.313-0.594c0.226-0.108,0.448-0.221,0.672-0.333
		c0.385-0.192,0.768-0.385,1.146-0.588c0.236-0.126,0.468-0.255,0.701-0.384c0.362-0.201,0.72-0.408,1.076-0.62
		c0.233-0.138,0.464-0.278,0.693-0.42c0.353-0.219,0.701-0.444,1.047-0.672c0.22-0.144,0.44-0.287,0.657-0.436
		c0.364-0.249,0.72-0.506,1.075-0.765c0.189-0.138,0.381-0.271,0.567-0.412c0.454-0.342,0.899-0.694,1.339-1.053
		c0.081-0.066,0.165-0.128,0.244-0.194c0.003-0.003,0.008-0.005,0.011-0.009v19.077c0,2.927-9.904,10.084-28.264,10.084H44.742
		c-18.359,0-28.262-7.157-28.262-10.084v-19.076c0.006,0.005,0.014,0.011,0.022,0.017c0.037,0.03,0.075,0.059,0.113,0.089
		c0.482,0.395,0.972,0.78,1.47,1.156c0.172,0.13,0.35,0.254,0.525,0.381c0.368,0.269,0.738,0.536,1.116,0.794
		c0.211,0.144,0.425,0.283,0.638,0.424c0.351,0.231,0.704,0.46,1.063,0.681c0.228,0.141,0.458,0.28,0.689,0.417
		c0.354,0.211,0.713,0.417,1.073,0.618c0.236,0.131,0.472,0.262,0.709,0.39c0.372,0.199,0.749,0.39,1.127,0.578
		c0.23,0.115,0.46,0.231,0.693,0.342c0.421,0.2,0.847,0.39,1.275,0.577c0.196,0.086,0.389,0.177,0.586,0.259
		c0.628,0.264,1.262,0.517,1.903,0.751c0.036,0.013,0.071,0.024,0.107,0.037c0.606,0.221,1.218,0.428,1.835,0.622
		c0.217,0.069,0.439,0.129,0.659,0.195c0.44,0.131,0.882,0.259,1.327,0.378c0.258,0.068,0.519,0.129,0.779,0.194
		c0.414,0.101,0.831,0.199,1.25,0.29c0.275,0.059,0.551,0.114,0.829,0.168c0.412,0.08,0.827,0.154,1.243,0.223
		c0.281,0.046,0.562,0.091,0.844,0.132c0.427,0.062,0.858,0.115,1.29,0.165c0.271,0.031,0.543,0.065,0.815,0.091
		c0.475,0.045,0.953,0.079,1.432,0.109c0.233,0.015,0.464,0.035,0.698,0.046c0.714,0.034,1.431,0.055,2.152,0.055h201.874V373.755z
		 M246.617,495.188H44.742c-13.794,0-25.305-9.937-27.768-23.028c7.502,3.45,17.075,5.468,27.768,5.468h201.874
		c10.687,0,20.258-2.015,27.759-5.462c-0.044,0.235-0.079,0.471-0.128,0.704c-0.028,0.131-0.06,0.262-0.09,0.393
		c-0.112,0.488-0.237,0.972-0.376,1.452c-0.038,0.13-0.072,0.261-0.111,0.39c-0.171,0.565-0.36,1.126-0.566,1.679
		c-0.047,0.128-0.101,0.253-0.15,0.38c-0.173,0.445-0.358,0.884-0.554,1.319c-0.069,0.154-0.138,0.31-0.21,0.463
		c-0.244,0.517-0.502,1.028-0.778,1.532c-0.074,0.136-0.155,0.267-0.231,0.402c-0.225,0.394-0.46,0.784-0.704,1.168
		C265.458,489.937,256.641,495.188,246.617,495.188z M461.268,479.02c-24.141,10.854-56.417,16.832-90.882,16.832
		c-30.435,0-59.243-4.683-82.203-13.276c0.03-0.079,0.055-0.159,0.084-0.239c0.086-0.233,0.165-0.469,0.248-0.704
		c0.145-0.416,0.291-0.831,0.424-1.25c0.089-0.281,0.172-0.565,0.256-0.849c0.113-0.381,0.224-0.762,0.326-1.146
		c0.082-0.307,0.158-0.616,0.234-0.925c0.09-0.37,0.177-0.741,0.257-1.113c0.069-0.319,0.135-0.638,0.197-0.959
		c0.072-0.374,0.139-0.749,0.201-1.125c0.054-0.32,0.107-0.638,0.153-0.96c0.057-0.395,0.105-0.792,0.152-1.19
		c0.035-0.305,0.074-0.607,0.103-0.914c0.043-0.452,0.074-0.906,0.103-1.362c0.017-0.255,0.04-0.508,0.052-0.763
		c0.034-0.716,0.055-1.433,0.055-2.153v-15.527v-0.185c23.141,6.031,50.856,9.313,79.358,9.313
		c48.85,0,99.879-10.124,125.134-29.309v12.819C495.521,456.482,483.036,469.234,461.268,479.02z"/>
	<path style="fill:#202020;" d="M310.759,87.532c13.013,0,23.639-4.74,28.23-11.841h24.518c4.46,0,8.074-3.614,8.074-8.074
		s-3.614-8.074-8.074-8.074h-24.518c-4.591-7.102-15.217-11.841-28.23-11.841c-17.491,0-30.68,8.561-30.68,19.915
		C280.079,78.97,293.268,87.532,310.759,87.532z M310.759,63.849c7.563,0,12.483,2.31,14.125,3.768
		c-1.642,1.456-6.561,3.768-14.125,3.768c-7.563,0-12.483-2.311-14.125-3.768C298.276,66.159,303.194,63.849,310.759,63.849z"/>
</g>
<g style="opacity:0.15;">
	<path style="fill:#202020;" d="M34.915,466.925v-11.473v-4.055v-5.731v-1.687v-4.045v-57.28v-18.326
		c-15.292-4.288-26.509-18.321-26.509-34.981v53.308v57.28v4.045v1.687v5.731v4.055v11.473c0,20.068,16.267,36.337,36.336,36.337
		h26.509C51.182,503.262,34.915,486.993,34.915,466.925z"/>
</g>
</svg>